<svg xmlns="http://www.w3.org/2000/svg" viewBox="0 0 32 32">
  <rect width="32" height="32" rx="4" fill="#080e1a"/>
  <!-- 6-tooth cog: outer_r=13, inner_r=10, hub_r=4.5, cyan on dark -->
  <path fill-rule="evenodd" fill="#00aaff" d="
    M 25.51 19.09
    L 28.72 18.70 L 28.72 13.30
    L 25.51 12.91
    L 23.43 9.31
    L 24.70 6.34 L 20.02 3.64
    L 18.08 6.22
    L 13.92 6.22
    L 11.98 3.64 L 7.30 6.34
    L 8.57 9.31
    L 6.49 12.91
    L 3.29 13.30 L 3.29 18.70
    L 6.49 19.09
    L 8.57 22.69
    L 7.30 25.66 L 11.98 28.36
    L 13.92 25.78
    L 18.08 25.78
    L 20.02 28.36 L 24.70 25.66
    L 23.43 22.69
    Z
    M 16 11.5 A 4.5 4.5 0 0 1 16 20.5 A 4.5 4.5 0 0 1 16 11.5 Z
  "/>
</svg>
